<svg xmlns="http://www.w3.org/2000/svg" xmlns:xlink="http://www.w3.org/1999/xlink" height="300px" version="1.1" x="0px" y="0px" viewBox="0 0 48 60" style="enable-background:new 0 0 48 48;" xml:space="preserve">
<style type="text/css">
	.st0{fill:#403a60;}
</style>
<g>
<path d="M39.2,25.1c0,0,8.8-11.5,8.8-16.4C48,3.9,44.1,0,39.2,0c-4.8,0-8.8,3.9-8.8,8.8C30.5,13.6,39.2,25.1,39.2,25.1z M39.2,2.6   c3.4,0,6.1,2.7,6.1,6.1c0,3.4-2.7,6.1-6.1,6.1s-6.1-2.7-6.1-6.1C33.1,5.4,35.8,2.6,39.2,2.6z"/>
<path d="M45.5,19.6C45.8,21,46,22.5,46,24c0,4-1.1,7.8-3,11.1c0,0,0,0,0,0l-0.6-1.4l-3-4.1L37,30.2L34.9,28l-0.4-2.4l-2.8,1   l-2.1-0.2l-3.9-2.1h-3.2l-2.4,2.7l0.3,4.5h-3.3l-1.9,0.9l-3.6-0.6l-5.2,1.7l0.8,2.7l1.9,1.1l2.7,0.5l1.3,1.9h4.4l4.9,2.5l1-0.7   l3.1,4.1h0C25.8,45.9,24.9,46,24,46C11.9,46,2,36.1,2,24C2,12.1,11.6,2.3,23.5,2.1l-0.3,3.1l3.2,1.1l2,2l0.2,0.3   c0-2.1,0.7-4,1.7-5.7c0.2-0.3,0.4-0.6,0.6-0.9c0.2-0.3,0.5-0.6,0.7-0.8C29.2,0.4,26.6,0,24,0C10.8,0,0,10.8,0,24   c0,13.2,10.8,24,24,24c13.2,0,24-10.8,24-24c0-2.4-0.4-4.7-1-6.9C46.5,17.9,46,18.8,45.5,19.6z"/>
<polygon points="22.4,11.4 20.8,8 20.2,8.7 16.8,7.5 11.7,10.8 9.6,10.8 8.3,11.2 6.5,15.2 6.5,16.8 8.6,17.1 9.9,16.7 10.5,18.3    12.5,19.8 14.6,18.8 15.8,20.5 19.1,15.9 20.9,15.7 20.7,13.7 22.9,13.7  "/>
</g>
</svg>