<svg xmlns="http://www.w3.org/2000/svg" x="0px" y="0px" height="200px" viewBox="0 0 100 125" class="logo">
<style type="text/css">
	.st0{fill:#fff;}
	.st1{fill:none;stroke:#fff;stroke-width:2;stroke-miterlimit:10;}
	.st2{fill:#fff;}
</style> 
<path class="st0" d="M59.5,65c0-0.5-0.3-1-0.7-1.3l-0.1-0.1c0,0-0.1-0.1-0.2-0.1l0,0l-11-8.3l-1.7,3.4l10,7.6l-10-7.6l-1.8,3.6  L54.9,70l-10.1-9.4L43.1,64l6.9,5.3l1.5,21.3c0.1,1.9,1.4,3.5,3.2,4.2c0.6,0.2,1.2,0.3,1.8,0.3c1.4,0,2.7-0.6,3.6-1.6  c0.9-1,1.3-2.2,1.2-3.5L59.5,65z"/>
<path class="st1" d="M54.7,58.4"/>
<path class="st2" d="M54,3.4c-3.2,0-5.9,1.7-7.5,4.3c-3-2.1-7-2.4-10.3-0.3c-4.3,2.7-5.6,8.4-2.9,12.7  c0.5,0.7,1,1.4,1.7,2c0.3,0.3,0.8,0.5,1.2,0.5c0.2,0,0.5,0,0.7-0.1c0.6-0.2,1.1-0.8,1.2-1.5c0.3-2.8,1.8-5.2,4.2-6.7  c1-0.6,2-1,3.1-1.2c0.4,4.4,4.1,7.9,8.7,7.9c4.8,0,8.7-3.9,8.7-8.7S58.8,3.4,54,3.4z"/>
<path class="st2" d="M79.2,33c-0.6-2.4-2.8-4.1-5.3-4.1c-0.5,0-1,0.1-1.4,0.2l-13.1,3.5l-5.7-6.3  c-0.1-0.1-0.3-0.3-0.4-0.4c0,0,0,0,0,0c-1.3-1.9-3.5-3.1-6-3.1c-3.2,0-5.9,2.1-6.9,5l0,0L40,28.2c0,0,0,0,0,0l0,0l-0.1,0.5  c-0.9-1.4-2.2-2.5-3.9-3c-3.6-1-7.4,1.1-8.4,4.7l-2.8,10.2c-1,3.6,1.1,7.4,4.7,8.4c1.9,0.5,3.8,0.2,5.3-0.7l-2.3,8.8L18.2,87.8  c-0.5,1.2-0.6,2.5-0.1,3.7c0.5,1.2,1.5,2.2,2.7,2.7c0.6,0.2,1.2,0.3,1.8,0.3c1.9,0,3.7-1.1,4.5-2.8L41.4,61l0,0l9.4-21.3l2.6,2.8  c1,1.1,2.5,1.8,4.1,1.8c0.5,0,1-0.1,1.5-0.2l11.1-3l3.7,54.2c0.1,1,0.9,1.7,1.8,1.7c0,0,0.1,0,0.1,0c1-0.1,1.8-0.9,1.7-2l-3.8-54.9  l1.6-0.4c1.4-0.4,2.6-1.3,3.4-2.6C79.4,35.9,79.6,34.4,79.2,33z"/>
</svg>

 